<?xml version="1.0" encoding="utf-8"?>
<!-- Generator: Adobe Illustrator 25.2.1, SVG Export Plug-In . SVG Version: 6.00 Build 0)  -->
<svg version="1.1" id="Calque_1" xmlns="http://www.w3.org/2000/svg" xmlns:xlink="http://www.w3.org/1999/xlink" x="0px" y="0px"
	 viewBox="0 0 256 332" style="enable-background:new 0 0 256 332;" xml:space="preserve">
<style type="text/css">
	.st0{fill:#FFFFFF;}
	.st1{fill:#FDF2AB;}
	.st2{fill:#FBE84E;}
	.st3{fill:#FCED78;}
</style>
<path d="M213.63,101.27c9.24-7.14,10.55-9.83,10.04-10.86c-0.71-1.41-2.22-0.66-2.59-0.47c-2.99,1.57-12.61,10.26-13.38,9.63
	c-1.54-1.25-1.66-1.84-2.18-3.75c-0.6-2.21-0.11-4.49,0.25-6.69c0.38-2.33,0.37-4.63,0.36-6.98c-0.02,0.01-0.04,0.01-0.06,0.02
	c-1.06-1.62-2.3-1.76-3.75,0.03c-0.56,0.69-1.14,1.59-1.18,2.42c-0.04,0.73-0.17,1.36-0.36,1.93c-0.02,0.2-0.03,0.41-0.05,0.61
	c-0.24,2.01-0.83,3.95-1.21,5.94c-0.23,1.42-1.13,4.15-1.04,4.22c-0.75,1.59-1.08,3.87-2.33,4.62c-2.38,1.43-3.62,3.2-3.63,5.78
	c0,1.95-0.82,3.22-2.14,4.51c-7.67,7.52-15.32,15.06-22.87,22.69c-1.39,1.4-2.31,1.49-3.95,0.4c-10.65-7.08-21.08-14.6-33.88-18.32
	c0.31-4.23,0.53-8.54,0.95-12.84c1.28-13.01,2.77-25.99,3.91-39.01c0.69-7.82,0.46-15.67-1.84-23.27
	c-4.25-14.04-14.95-17.53-26.73-8.75c-6.5,4.85-10.93,11.39-14.54,18.49c-11.2,22.02-15.51,45.56-15.02,70.08
	c0.03,1.45-0.16,2.49-0.82,3.33c-2.47,0.82-14.63,5.64-18.71,22.59c-4.55,18.91-6.44,40.68-8.88,42.21
	c-2.45,1.53,0.19,4.01-5.27,3.25c-5.46-0.76-13.36,2.86-16.38,8.21c-3.01,5.35,3.76,14.41,9.04,15.03s9.79-5.16,13.36-5.8
	c2.83-0.51,8.65-0.62,11.87-2.15c-0.84,3.51-1.85,6.99-3.05,10.45c-0.42,1.2-0.66,2.12-0.69,2.82c0.24,0.56,0.5,1.11,0.77,1.66
	c0.68,0.4,1.83,0.53,3.56,0.54c1.57,0.01,11.15-0.87,13.32-1.38c2.91-0.69,10.68-3.72,13.18-5.36c3.86-2.54,2.55,0.8,5.65,6.02
	c0.83,0.87,2.2,6.71,2.54,7.34c0.54,1.01-4.67,43.08-8.19,51.04C85.56,286.4,63.16,287.98,61,293c-2,4-4.11,24.29,29.46,11.2
	c0.84-0.33,13.26-3.58,16.09-4.57c3.26-1.14,11.78,7.66,14.46,9.36c7.88,5,16,7,22.87,0.58c-0.01-0.13,2.13-3.44,2.13-3.58
	c-0.08-7.29-6.92-10.29-11.99-15.06c-4.24-3.99-4.71-8.38-3.36-13.86c1.21-4.93,3.6-9.6,8.71-11.28c2.64-0.87,5.44-0.64,8.13-1.21
	c4.36-0.93,5.4-4.21,5.38-8.29c-0.01-1.76-10.63-14.85-7.87-17.3c3.66-3.24,5.66-10.8,6.33-14.94c-0.11-0.14-0.19-0.29-0.2-0.5
	c-0.14-2.3-0.02-4.61-0.24-6.91c-0.2-2.15-0.54-4.29-0.74-6.44c-0.19-2.12-2.34-14.48-3.15-16.1c-0.33-0.66-2.85-9.36-3.14-13.3
	c0-0.05,0.01-0.09,0.02-0.13c-0.09-0.85,1.15-1.52,1.82-0.67c0.75,1.01,1.54,1.98,2.31,2.97c1.88,2.44,3.71,4.97,5.01,7.78
	c0.63,1.36,9.33,30.79,30.8,29.28c0.11-0.03,0.22-0.07,0.33-0.1c2.4-0.63,4.83-1.17,7.27-1.62c0.9-0.28,5.77-4.85,7.52-6.48
	c-5.81-4.89-10.26-10.9-13.81-17.55c-1.62-3.03-7.52-15.21-8.31-17.53c-0.37-1.65-0.75-3.3-1.12-4.96
	c-0.35-0.38-0.63-0.86-0.86-1.48c-0.85-2.25-1.85-4.48-3.09-6.53c-5.56-9.18-14.36-12.84-24.51-13.66
	c-4.41-0.35-8.9,0.24-13.87,0.42c-1.01-4.55-2.09-9.39-3.17-14.24c1.45,0.14,2.18,0.52,2.9,0.91c9.24,4.95,18.38,10.11,27.76,14.78
	c7.74,3.86,8.94,3.63,15.05-2.61c6.58-6.71,12.81-13.77,19.13-20.73c1.35-1.48,2.33-3.01,4.87-2.59c1.08,0.18,2.63-0.96,3.59-1.88
	c1.3-1.25,2.17-2.94,3.38-4.3c1.16-1.32,2.52-2.46,3.79-3.68c1.54-1.48,3.37-2.75,4.54-4.48c1.14-1.68,1.39-2.94,0.83-4.13
	c-1.05-0.84-1.97-1.83-2.73-3.01c-0.03-0.03-0.04-0.07-0.07-0.1c-0.26-0.34-1.88-1.35-1.54-1.63
	C212.39,102.29,213.01,101.75,213.63,101.27z"/>
<path class="st0" d="M153.58,109.12c-0.92-0.66-1.39-1.3-1.89-1.31c-4.05-0.12-8.11-0.16-12.16-0.09c-0.39,0.01-0.76,0.85-1.15,1.3
	c0.48,0.36,0.96,1.01,1.46,1.03c3.89,0.11,7.79,0.13,11.69,0.09C152.05,110.13,152.58,109.63,153.58,109.12z"/>
<path class="st0" d="M140.34,112.74c-0.98,0.52-1.62,0.86-2.25,1.2c0.39,0.55,0.66,1.28,1.19,1.62c2.82,1.83,5.69,3.61,8.59,5.31
	c0.51,0.3,1.29,0.15,1.94,0.21c-0.14-0.71-0.02-1.77-0.45-2.08C146.46,116.86,143.45,114.87,140.34,112.74z"/>
<path class="st0" d="M137.88,103.75c0.36-0.09,0.64-0.09,0.83-0.22c2.79-1.95,5.59-3.9,8.32-5.93c0.29-0.21,0.35-1.35,0.16-1.47
	c-0.47-0.29-1.34-0.52-1.72-0.27c-2.7,1.79-5.35,3.67-7.95,5.6c-0.34,0.26-0.45,1.01-0.43,1.52
	C137.1,103.26,137.62,103.52,137.88,103.75z"/>
<path d="M130.76,151.99c-1.11-6.79-2.56-13.21-3.15-19.72c-1.38-15.1,0.66-30.08,2.36-45.05c1.29-11.33,2.92-22.64,2.17-34.1
	c-0.39-5.94-1.39-11.76-4.66-16.91c-2.66-4.19-4.03-4.64-8.69-3.03c-1.1,0.38-2.18,0.84-3.21,1.37
	c-7.03,3.59-11.81,9.43-15.51,16.15c-15.41,28.04-20.52,57.94-15.96,89.56c0.24,1.68,0.89,2.13,2.52,2.21
	c7.55,0.38,14.54,2.69,20.95,6.66c5.05,3.13,7.73,7.99,9.37,13.76c1.36-1.29,2.43-2.45,3.65-3.43c1.2-0.97,1.36-1.94,0.99-3.45
	c-0.64-2.57-1-5.23-1.23-7.87c-0.07-0.77,0.69-1.62,1.07-2.43c0.45,0.76,1.15,1.47,1.3,2.28c0.47,2.57,0.74,5.18,1.12,8.05
	C126.58,154.44,128.85,153.11,130.76,151.99z"/>
<path d="M138.71,258.23c-2.25-5.05-4.56-10-6.64-15.06c-0.56-1.37-0.77-3.07-0.55-4.53c1.59-10.56,0.68-20.84-3.96-30.48
	c-6.11-12.72-10.02-26.1-12.31-39.92c-0.76-4.54-2.66-6.68-6.84-7.96c-5.82-1.78-10.01-0.07-11.64,5.78
	c-0.9,3.26-1.4,6.69-1.6,10.07c-0.46,8.01-1.11,15.94-4.49,23.38c-0.34,0.76-0.23,1.8-0.11,2.67c1.17,8.05,5.57,14.49,10.47,20.66
	c0.33,0.42,1.19,0.82,1.63,0.67c4.8-1.58,8.6,0.53,11.24,3.99c4.49,5.89,8.68,12.07,12.41,18.47c2.86,4.91,4.82,10.34,7.24,15.67
	C135.38,260.44,136.96,259.39,138.71,258.23z"/>
<path d="M194.94,211.53c-8.3-9.1-10.47-12.39-15.46-23.84c-2.79-6.41-5.45-12.88-8.18-19.32c-2.82-6.67-7.64-11.41-14.5-13.54
	c-4.31-1.34-8.92-1.94-13.44-2.37c-5.97-0.57-9.58,3.5-12.96,7.59c-1.09,1.32-0.78,2.64,0.79,3.53c1.88,1.07,3.67,2.36,5.64,3.2
	c9.73,4.13,15.28,11.61,18.73,21.43c2.07,5.89,5.37,11.44,8.69,16.78c3.08,4.97,7.64,8.54,13.33,10.41
	C183.99,217.52,191.11,215.96,194.94,211.53z"/>
<path d="M62.54,221.54c1.68-0.44,3.12-0.55,4.3-1.17c2.72-1.42,5.53-2.8,7.92-4.68c11.19-8.83,16.65-20.6,17.55-34.73
	c0.34-5.29,0.84-10.65,2.06-15.79c1.65-6.91,7.64-9.73,14.36-7.42c1.23,0.42,2.44,0.88,4.15,1.5c-1.27-3.29-3.14-5.44-5.48-7.19
	c-6.04-4.51-12.88-6.11-20.28-5.06c-6.36,0.91-9.94,4.4-10.44,10.87c-0.51,6.61-0.6,13.29-0.38,19.92
	C76.86,193.85,74.58,208.92,62.54,221.54z"/>
<path d="M145.98,257.88c-0.24-0.59-0.42-1.14-0.69-1.63c-2.53-4.69-5.05-9.37-7.62-14.04c-0.65-1.18-1.23-2.25,0.32-3.17
	c6.1-3.65,8.63-9.48,8.91-16.13c0.24-5.69,0.21-11.57-0.94-17.11c-2.15-10.33-5.2-20.47-7.87-30.68c-1.12-4.27-4.15-6.1-8.22-4.29
	c-3.22,1.43-6.12,3.61-9.03,5.66c-0.56,0.39-0.81,1.78-0.62,2.57c2.11,9.01,4.88,17.81,8.95,26.16c5.19,10.65,6.77,21.83,5,33.54
	c-0.19,1.23,0.03,2.66,0.5,3.81c1.64,4,3.67,7.85,5.18,11.9C140.96,257.38,142.45,258.96,145.98,257.88z"/>
<path d="M129.61,119.67c0.06,3.51,0.16,6.39,0.13,9.28c-0.02,1.54,0.62,2.41,1.96,3.11c4.28,2.23,8.44,4.69,12.77,6.83
	c7.67,3.8,15.43,7.43,23.14,11.15c1.99,0.96,3.63,0.62,5.14-1.02c7.21-7.83,14.47-15.62,21.67-23.45c0.38-0.41,0.41-1.14,0.58-1.73
	c0.16-0.56,0.3-1.13,0.45-1.7c0.59,0.18,1.31,0.21,1.76,0.57c1.91,1.53,3.51,1.19,4.94-0.62c0.95-1.21,1.87-2.46,2.47-3.26
	c-1.3-1.22-2.34-2.13-3.3-3.12c-0.45-0.47-0.76-1.56-1.1-1.54c-0.66,0.03-1.45,0.5-1.91,1.03c-1.65,1.93-2.96,2.02-4.42,0.12
	c-0.29-0.38-0.52-0.8-0.88-1.36c-0.7,0.7-1.29,1.27-1.85,1.86c-6.57,6.96-13.08,13.98-19.71,20.87c-4.76,4.94-2.76,4.9-9.27,0.82
	c-8.66-5.42-17.49-10.57-26.33-15.7C134.13,120.8,132.03,120.47,129.61,119.67z"/>
<path class="st1" d="M202.12,111.21c3.69-1.08,7.06-2.59,8.88-7.08C206.74,105.55,204.06,107.9,202.12,111.21z"/>
<path class="st1" d="M204.75,115.17c5.17-0.4,8.45-3.09,8.74-6.77c-0.5,0.31-0.93,0.51-1.29,0.8
	C209.89,111.03,207.6,112.88,204.75,115.17z"/>
<path class="st1" d="M196.51,112.74c2.26-3.81,2.36-6.6,0.35-8.15C195.32,107.16,195.46,109.69,196.51,112.74z"/>
<path d="M153.58,109.12c-1,0.51-1.52,1-2.05,1.01c-3.9,0.04-7.79,0.02-11.69-0.09c-0.49-0.01-0.97-0.67-1.46-1.03
	c0.38-0.45,0.76-1.3,1.15-1.3c4.05-0.06,8.11-0.02,12.16,0.09C152.18,107.83,152.66,108.46,153.58,109.12z"/>
<path d="M140.34,112.74c3.11,2.13,6.12,4.12,9.02,6.26c0.43,0.32,0.32,1.37,0.45,2.08c-0.65-0.06-1.43,0.09-1.94-0.21
	c-2.91-1.7-5.77-3.47-8.59-5.31c-0.53-0.34-0.8-1.07-1.19-1.62C138.72,113.6,139.36,113.26,140.34,112.74z"/>
<path d="M137.88,103.75c-0.25-0.23-0.77-0.49-0.79-0.77c-0.02-0.51,0.08-1.26,0.43-1.52c2.6-1.94,5.24-3.82,7.95-5.6
	c0.38-0.25,1.25-0.02,1.72,0.27c0.19,0.12,0.13,1.25-0.16,1.47c-2.73,2.04-5.53,3.98-8.32,5.93
	C138.52,103.66,138.24,103.66,137.88,103.75z"/>
<path class="st1" d="M130.76,151.99c-1.91,1.12-4.17,2.45-6.9,4.06c-0.38-2.87-0.65-5.48-1.12-8.05c-0.15-0.81-0.85-1.52-1.3-2.28
	c-0.38,0.81-1.14,1.66-1.07,2.43c0.23,2.64,0.6,5.3,1.23,7.87c0.37,1.5,0.21,2.48-0.99,3.45c-1.22,0.98-2.29,2.14-3.65,3.43
	c-1.64-5.77-4.31-10.63-9.37-13.76c-6.42-3.97-13.4-6.28-20.95-6.66c-1.63-0.08-2.28-0.54-2.52-2.21
	c-4.56-31.62,0.54-61.52,15.96-89.56c3.7-6.73,8.48-12.56,15.51-16.15c1.03-0.53,2.11-0.99,3.21-1.37c4.66-1.61,6.03-1.17,8.69,3.03
	c3.27,5.15,4.27,10.97,4.66,16.91c0.75,11.45-0.88,22.77-2.17,34.1c-1.7,14.98-3.73,29.95-2.36,45.05
	C128.2,138.77,129.65,145.2,130.76,151.99z M104.16,129.56c3.44,0.81,7.22,0.39,10.76-1.76c6-3.64,10.07-13.18,8.53-20.02
	c-0.45-2.01-1.5-3.59-3.63-3.99c-2.09-0.4-3.44,0.85-4.49,2.49c-0.27,0.42-0.48,0.87-0.75,1.29c-2.7,4.23-7.88,4.62-11.14,0.77
	c-0.96-1.13-1.5-2.61-2.49-3.71c-1.01-1.13-2.18-2.39-3.54-2.86c-3.26-1.15-6.04,0.65-7.46,4.41
	C85.94,116.81,92.02,127.17,104.16,129.56z M127.1,61.87c0.01,0,0.02,0,0.04,0c0.14-2.24,0.33-4.48,0.42-6.72
	c0.19-5.27-0.12-10.48-2.17-15.42c-0.26-0.64-1.21-0.99-1.84-1.48c-0.12,0.79-0.44,1.61-0.33,2.36c0.58,4.25,1.5,8.47,1.83,12.74
	c0.23,3.04-0.34,6.13-0.4,9.2c-0.01,0.61,0.7,1.24,1.08,1.86c0.42-0.52,0.89-1.01,1.25-1.58C127.13,62.6,127.06,62.2,127.1,61.87z
	 M92.88,92.11c-0.1,0.8-0.22,1.37-0.23,1.94c-0.03,1.66,0.26,3.26,2.12,3.76c1.93,0.51,3.32-0.6,3.92-2.24
	c0.58-1.58,0.99-3.4,0.77-5.02c-0.16-1.13-1.47-2.91-2.32-2.95c-1.1-0.05-2.4,1.22-3.36,2.19C93.2,90.39,93.11,91.46,92.88,92.11z
	 M123.9,96.26c0.06,0,0.12,0,0.18,0c-0.01-1.24,0.18-2.53-0.11-3.7c-0.21-0.85-0.92-1.9-1.67-2.19c-0.61-0.24-2.02,0.27-2.35,0.86
	c-0.91,1.61-1.74,3.39-2.02,5.2c-0.28,1.85,0.34,3.91,2.57,4.23c2.3,0.33,2.71-1.73,3.22-3.41
	C123.82,96.92,123.84,96.59,123.9,96.26z M101.94,66.72c0.07,0.02,0.14,0.04,0.22,0.06c-0.28,1.55-0.66,3.09-0.77,4.64
	c-0.04,0.55,0.62,1.14,0.95,1.71c0.46-0.48,1.2-0.89,1.34-1.46c1.12-4.23,2.16-8.48,3.12-12.75c0.13-0.59-0.28-1.31-0.44-1.97
	c-0.6,0.41-1.55,0.7-1.75,1.26C103.62,61.01,102.81,63.87,101.94,66.72z M124.12,53.82c-0.14-2.1-0.12-3.86-0.43-5.56
	c-0.1-0.57-1-1-1.54-1.5c-0.28,0.6-0.78,1.2-0.8,1.82c-0.06,1.57,0,3.15,0.19,4.71c0.07,0.63,0.59,1.2,0.91,1.8
	C123.02,54.65,123.6,54.21,124.12,53.82z M110.77,134.07c-0.22-0.49-0.3-0.99-0.49-1.04c-1.24-0.31-2.54-0.82-3.74-0.66
	c-1,0.14-1.92,1.06-2.8,1.74c-0.16,0.13-0.1,0.9,0.12,1.09c0.31,0.27,0.86,0.42,1.29,0.37c1.41-0.17,2.82-0.4,4.21-0.71
	C109.84,134.76,110.26,134.37,110.77,134.07z M118.07,147.2c-0.7,0.66-1.42,1.02-1.42,1.38c0.03,1.85,0.19,3.71,0.46,5.54
	c0.04,0.26,0.91,0.41,1.4,0.6c0.12-1.85,0.31-3.69,0.34-5.54C118.85,148.64,118.43,148.08,118.07,147.2z M123.3,85.69
	c-0.67-0.01-1.06-0.13-1.32,0c-0.78,0.4-1.51,0.91-2.26,1.37c0.71,0.36,1.42,0.73,2.14,1.06c0.57,0.27,1.14,0.58,1.75,0.71
	c0.56,0.12,1.16,0.03,1.75,0.03c-0.04-0.6,0.14-1.38-0.17-1.75C124.65,86.45,123.8,86.05,123.3,85.69z M96.94,81.91
	c-1.44,0.89-2.74,1.58-3.88,2.49c-0.25,0.2-0.06,1.21,0.21,1.7c0.1,0.19,1,0.04,1.5-0.11c0.81-0.24,1.6-0.58,2.36-0.94
	c0.59-0.28,1.12-0.67,1.67-1.01C98.31,83.48,97.82,82.92,96.94,81.91z"/>
<path class="st2" d="M138.71,258.23c-1.75,1.16-3.33,2.21-5.14,3.41c-2.42-5.33-4.38-10.76-7.24-15.67
	c-3.73-6.4-7.92-12.58-12.41-18.47c-2.64-3.45-6.44-5.57-11.24-3.99c-0.43,0.14-1.3-0.26-1.63-0.67c-4.9-6.17-9.3-12.61-10.47-20.66
	c-0.13-0.88-0.24-1.92,0.11-2.67c3.38-7.44,4.03-15.37,4.49-23.38c0.19-3.38,0.69-6.81,1.6-10.07c1.62-5.85,5.81-7.57,11.64-5.78
	c4.18,1.28,6.09,3.42,6.84,7.96c2.3,13.82,6.2,27.2,12.31,39.92c4.63,9.64,5.55,19.92,3.96,30.48c-0.22,1.46-0.02,3.17,0.55,4.53
	C134.15,248.23,136.46,253.18,138.71,258.23z"/>
<path class="st3" d="M194.94,211.53c-3.83,4.43-10.95,5.99-17.36,3.88c-5.69-1.88-10.25-5.45-13.33-10.41
	c-3.32-5.34-6.61-10.89-8.69-16.78c-3.45-9.82-9-17.3-18.73-21.43c-1.98-0.84-3.76-2.13-5.64-3.2c-1.57-0.89-1.88-2.22-0.79-3.53
	c3.39-4.09,6.99-8.15,12.96-7.59c4.52,0.43,9.13,1.03,13.44,2.37c6.86,2.13,11.68,6.87,14.5,13.54c2.73,6.44,5.39,12.91,8.18,19.32
	C184.47,199.14,186.63,202.43,194.94,211.53z"/>
<path class="st3" d="M62.54,221.54c12.03-12.62,14.32-27.7,13.78-43.75c-0.22-6.63-0.13-13.31,0.38-19.92
	c0.5-6.47,4.08-9.96,10.44-10.87c7.4-1.06,14.24,0.54,20.28,5.06c2.34,1.75,4.2,3.9,5.48,7.19c-1.71-0.62-2.93-1.08-4.15-1.5
	c-6.72-2.31-12.71,0.5-14.36,7.42c-1.23,5.14-1.73,10.5-2.06,15.79c-0.9,14.13-6.36,25.9-17.55,34.73c-2.39,1.89-5.2,3.27-7.92,4.68
	C65.66,220.99,64.22,221.11,62.54,221.54z"/>
<path class="st2" d="M145.98,257.88c-3.53,1.08-5.02-0.5-6.12-3.42c-1.52-4.04-3.54-7.9-5.18-11.9c-0.47-1.15-0.68-2.58-0.5-3.81
	c1.77-11.71,0.18-22.89-5-33.54c-4.07-8.35-6.84-17.15-8.95-26.16c-0.19-0.79,0.07-2.18,0.62-2.57c2.91-2.05,5.81-4.23,9.03-5.66
	c4.07-1.81,7.1,0.02,8.22,4.29c2.67,10.22,5.72,20.36,7.87,30.68c1.15,5.54,1.18,11.42,0.94,17.11c-0.28,6.65-2.82,12.48-8.91,16.13
	c-1.55,0.93-0.97,1.99-0.32,3.17c2.57,4.66,5.1,9.35,7.62,14.04C145.56,256.74,145.74,257.29,145.98,257.88z"/>
<path class="st1" d="M129.61,119.67c2.42,0.8,4.52,1.14,6.23,2.13c8.84,5.12,17.67,10.27,26.33,15.7c6.51,4.08,4.51,4.12,9.27-0.82
	c6.63-6.9,13.14-13.91,19.71-20.87c0.56-0.59,1.15-1.16,1.85-1.86c0.36,0.56,0.59,0.98,0.88,1.36c1.45,1.9,2.76,1.81,4.42-0.12
	c0.45-0.53,1.25-1,1.91-1.03c0.34-0.02,0.65,1.07,1.1,1.54c0.96,0.99,1.99,1.9,3.3,3.12c-0.6,0.79-1.51,2.04-2.47,3.26
	c-1.43,1.82-3.03,2.16-4.94,0.62c-0.45-0.36-1.17-0.39-1.76-0.57c-0.15,0.57-0.29,1.14-0.45,1.7c-0.17,0.59-0.2,1.32-0.58,1.73
	c-7.2,7.84-14.46,15.63-21.67,23.45c-1.51,1.64-3.16,1.98-5.14,1.02c-7.72-3.71-15.47-7.34-23.14-11.15
	c-4.32-2.14-8.49-4.6-12.77-6.83c-1.34-0.7-1.98-1.57-1.96-3.11C129.77,126.06,129.67,123.18,129.61,119.67z"/>
<path class="st1" d="M31.14,204.78c2.44-3.72,6.1-5.91,11.31-6.08c0.89-0.03,1.95,0.57,2.93,0.88c-0.62,0.49-1.11,1.2-1.88,1.43
	c-3.15,0.96-6.03,2.21-7.82,4.74c-0.44,0.62-0.6,1.43-0.89,2.15c0.29,0.19,0.59,0.38,0.88,0.57c0.53-0.55,1.13-1.05,1.58-1.65
	c1.94-2.65,4.39-4.68,8.44-4.63c0.69,0.01,1.5,0.55,2.25,0.84c-0.37,0.47-0.6,1.13-1.13,1.37c-2.49,1.15-4.82,2.42-5.98,4.88
	c1.01-0.83,1.95-1.73,3.03-2.48c2.11-1.48,4.53-2.34,7.66-1.93c0.77,0.1,7.05-2.36,7.48-2.86c1-1,2.69-3.07,3-4
	c12.68-38.81,3.3-51.26,15.8-61.9c-0.03-0.33,0.35-6.07,0.21-6.78c-1.27,0-5.59,3.64-6.75,4.69C63.87,140.68,60,187,54,196
	c-0.74,0.99-5.93,2.49-7.61,2.07C39.2,196.27,32.63,199.16,31.14,204.78z"/>
<path class="st1" d="M108.05,258.22c-0.02-1.8,12.24-33.17-4.89-31.96c-1.13,2.34,2.54,22.19-10.93,61.95
	c-0.52,1.52-1.4,2.23-3.01,2.45c-5.44,0.75-10.87,1.56-16.28,2.47c-2.42,0.4-4.9,0.9-6.55,4.08c1.8-0.31,3-0.65,4.21-0.69
	c0.85-0.03,1.71,0.34,2.57,0.53c-0.71,0.62-1.34,1.4-2.16,1.8c-1.02,0.5-2.2,0.68-3.31,1c0.05,0.29,0.1,0.59,0.15,0.88
	c0.69-0.03,1.4,0.06,2.06-0.1c1.12-0.27,2.2-0.83,3.33-0.97c0.55-0.07,1.19,0.52,1.79,0.82c-0.43,0.5-0.77,1.2-1.32,1.47
	c-1.27,0.63-2.64,1.05-3.97,1.55c0.07,0.24,0.13,0.47,0.2,0.71c0.61-0.04,1.24-0.01,1.84-0.12c6.61-1.28,13.22-2.59,19.83-3.88
	c2.69-0.52,4.75-1.92,6.14-4.28C97.86,295.69,108.08,261.65,108.05,258.22z"/>
<path class="st1" d="M135.72,304.16c-0.62-0.92-0.95-2.02-1.41-3.04c1.01,0.41,2.11,0.68,3,1.26c1.35,0.87,2.55,1.97,4.34,3.39
	c-0.17-1.14-0.12-1.43-0.25-1.6c-4.53-5.94-10.82-9.76-16.8-13.96c-3.18,0.42-2.56-1.64-2.23-3.46c0.4-2.21,1.12-4.4,1.23-6.61
	c0.1-2.01,2.13-23.86,2.21-25.88c-0.07-0.03-6.14-11.12-6.21-11.15c-1.7,1.76-1.82,38.11-2.63,38.25c-0.31,3.11-0.62,6.22-0.89,9.34
	c-0.1,1.17,0.07,2.8,0.8,3.52c4.97,4.92,10.13,9.65,15.23,14.45c0.18-0.19,0.37-0.39,0.55-0.58c-0.43-0.45-0.97-0.85-1.27-1.38
	c-0.35-0.63-0.48-1.38-0.71-2.07c0.8,0.14,1.77,0.03,2.35,0.46c1.05,0.78,1.79,1.97,2.79,2.82c0.54,0.45,1.37,0.55,2.06,0.81
	c-0.02-0.82,0.23-1.79-0.11-2.44C137.32,305.45,136.26,304.96,135.72,304.16z"/>
<path class="st1" d="M217.7,94.6c3.25-0.71-15.81,14.73-16.86,11.8c-3.24-1.54,1.49-9.35,2.32-14.03c-0.33,2.79-0.74,5.58-0.95,8.38
	c-0.05,0.65,0.55,1.35,0.84,2.02C207.3,102.93,217.37,93.71,217.7,94.6z"/>
<path class="st1" d="M202.12,111.21c1.94-3.31,4.62-5.66,8.88-7.08C209.18,108.62,205.81,110.13,202.12,111.21z"/>
<path class="st1" d="M204.75,115.17c2.85-2.29,5.14-4.14,7.44-5.97c0.36-0.29,0.79-0.49,1.29-0.8
	C213.2,112.08,209.93,114.77,204.75,115.17z"/>
<path class="st1" d="M196.51,112.74c-1.05-3.05-1.19-5.59,0.35-8.15C198.86,106.15,198.77,108.93,196.51,112.74z"/>
<path d="M127.1,61.87c-0.04,0.33,0.03,0.73-0.13,0.98c-0.36,0.56-0.83,1.05-1.25,1.58c-0.38-0.62-1.09-1.25-1.08-1.86
	c0.06-3.07,0.64-6.16,0.4-9.2c-0.33-4.27-1.25-8.49-1.83-12.74c-0.1-0.76,0.21-1.57,0.33-2.36c0.63,0.49,1.58,0.84,1.84,1.48
	c2.04,4.94,2.36,10.16,2.17,15.42c-0.08,2.24-0.27,4.48-0.42,6.72C127.12,61.88,127.11,61.87,127.1,61.87z"/>
<path d="M92.88,92.11c0.23-0.65,0.32-1.73,0.9-2.31c0.95-0.96,2.25-2.23,3.36-2.19c0.86,0.04,2.17,1.81,2.32,2.95
	c0.22,1.62-0.19,3.44-0.77,5.02c-0.6,1.64-1.99,2.75-3.92,2.24c-1.86-0.5-2.15-2.1-2.12-3.76C92.66,93.48,92.78,92.91,92.88,92.11z"
	/>
<path d="M123.9,96.26c-0.06,0.33-0.09,0.66-0.18,0.98c-0.51,1.68-0.92,3.75-3.22,3.41c-2.23-0.32-2.85-2.38-2.57-4.23
	c0.27-1.8,1.11-3.58,2.02-5.2c0.33-0.59,1.74-1.1,2.35-0.86c0.75,0.3,1.46,1.34,1.67,2.19c0.29,1.17,0.09,2.46,0.11,3.7
	C124.03,96.26,123.96,96.26,123.9,96.26z"/>
<path d="M124.12,53.82c-0.52,0.4-1.1,0.83-1.67,1.27c-0.32-0.6-0.84-1.17-0.91-1.8c-0.18-1.56-0.25-3.14-0.19-4.71
	c0.03-0.62,0.52-1.21,0.8-1.82c0.54,0.5,1.44,0.93,1.54,1.5C123.99,49.96,123.98,51.72,124.12,53.82z"/>
<path d="M110.77,134.07c-0.51,0.29-0.93,0.69-1.42,0.79c-1.39,0.31-2.79,0.54-4.21,0.71c-0.42,0.05-0.98-0.1-1.29-0.37
	c-0.21-0.19-0.28-0.96-0.12-1.09c0.88-0.68,1.8-1.61,2.8-1.74c1.2-0.16,2.51,0.35,3.74,0.66
	C110.47,133.08,110.55,133.58,110.77,134.07z"/>
<path d="M118.07,147.2c0.36,0.89,0.78,1.44,0.77,1.98c-0.03,1.85-0.21,3.7-0.34,5.54c-0.49-0.2-1.36-0.34-1.4-0.6
	c-0.27-1.83-0.43-3.69-0.46-5.54C116.64,148.22,117.36,147.85,118.07,147.2z"/>
<path d="M123.3,85.69c0.5,0.36,1.35,0.76,1.89,1.42c0.31,0.37,0.13,1.15,0.17,1.75c-0.58,0-1.19,0.09-1.75-0.03
	c-0.61-0.13-1.18-0.45-1.75-0.71c-0.72-0.34-1.43-0.71-2.14-1.06c0.75-0.46,1.48-0.97,2.26-1.37
	C122.24,85.55,122.63,85.68,123.3,85.69z"/>
<path d="M96.94,81.91c0.88,1,1.37,1.56,1.86,2.12c-0.56,0.34-1.09,0.73-1.67,1.01c-0.76,0.37-1.55,0.7-2.36,0.94
	c-0.49,0.15-1.39,0.3-1.5,0.11c-0.27-0.49-0.46-1.5-0.21-1.7C94.2,83.5,95.5,82.8,96.94,81.91z"/>
<path class="st0" d="M98.91,106.08c0.72,1.07,1.64,2.07,2.07,3.25c0.23,0.61-0.19,1.74-0.7,2.27c-0.63,0.65-1.65,0.93-2.5,1.37
	c-0.29-0.8-0.9-1.65-0.81-2.4c0.19-1.51,0.77-2.97,1.18-4.45C98.41,106.1,98.66,106.09,98.91,106.08z"/>
<path class="st0" d="M103.45,111.81c1.11,0.63,1.87,1.07,2.84,1.62c-0.57,1.17-0.95,2.26-1.59,3.17c-0.29,0.41-1.23,0.78-1.63,0.6
	c-0.43-0.19-0.87-1.08-0.79-1.58C102.47,114.42,102.97,113.29,103.45,111.81z"/>
<path class="st0" d="M109.54,117.78c-0.24-1.23-0.71-2.49-0.59-3.68c0.05-0.46,1.46-0.77,2.25-1.15c0.19,0.17,0.38,0.34,0.57,0.51
	c-0.35,1.44-0.69,2.88-1.04,4.31C110.33,117.78,109.93,117.78,109.54,117.78z"/>
<path class="st0" d="M114.14,111.78c0.97-0.99,1.69-1.73,2.97-3.05c0.1,2.32,0.16,3.95,0.23,5.59c-0.27,0.08-0.55,0.17-0.82,0.25
	C115.78,113.7,115.03,112.83,114.14,111.78z"/>
</svg>
