<?xml version="1.0" encoding="utf-8"?>
<!-- Generator: Adobe Illustrator 25.2.1, SVG Export Plug-In . SVG Version: 6.00 Build 0)  -->
<svg version="1.1" id="Calque_1" xmlns="http://www.w3.org/2000/svg" xmlns:xlink="http://www.w3.org/1999/xlink" x="0px" y="0px"
	 viewBox="0 0 256 242" style="enable-background:new 0 0 256 242;" xml:space="preserve">
<style type="text/css">
	.st0{fill:#FBE84E;}
	.st1{fill:#FFFFFF;}
</style>
<path d="M69.15,211c-4.25,0-8.64-0.47-13.05-1.41c-6.52-1.38-12.58-3.85-18-7.33c-3.13-2.01-6.03-4.42-8.84-6.76l-0.58-0.49
	c-1.99-1.65-2.25-4.17-0.66-6.41c0.88-1.25,2.31-1.99,3.83-1.99c0.82,0,1.63,0.22,2.34,0.64c1.03,0.6,1.88,1.42,2.7,2.21l0.31,0.3
	c2.68,2.54,5.92,4.42,9.64,5.57c1.69,0.53,3.46,0.79,5.24,0.79c2.31,0,4.7-0.45,7.11-1.32c3.73-1.36,7.05-3.8,10.76-7.91
	c3.28-3.63,5.92-7.43,8.06-11.62c0.52-1.02,0.95-2.09,1.39-3.23c-0.65,0.22-1.26,0.43-1.88,0.62c-1.69,0.53-3.38,0.8-5.03,0.8
	c-1.73,0-3.44-0.29-5.09-0.88c-5.99-2.11-10.27-6.63-13.09-13.8c-1.97-5.01-2.49-10.3-1.55-15.72c0.06-0.33,0.11-0.67,0.16-1
	c0.3-2.06,0.65-4.4,2.84-5.96l0.65-0.46l0.6,0.54c1.13,1.02,1.84,2.6,2.46,3.99c0.15,0.34,0.29,0.66,0.44,0.95
	c0.24,0.49,0.47,0.99,0.7,1.48c0.15,0.36,0.3,0.68,0.46,1c0.66,1.41,1.43,3.01,2.45,4.4c3.35,4.58,8.93,5.33,13.94,5.47
	c0.64,0.02,1.25,0.08,1.83,0.15c0.59,0.06,1.15,0.12,1.66,0.12c1.16,0,1.73-0.31,2.17-1.19c0.41-0.81,0.88-6.13,0.89-18.46
	c0-0.92,0-1.84-0.01-2.8c-0.01-1.82-0.02-3.74,0.01-5.31c0.01-0.98,0.05-1.81,0.09-2.59c0.08-1.81,0.15-3.37-0.08-6.31
	c-0.04-0.46-0.04-1.04-0.03-1.48c-0.12-0.07-0.23-0.13-0.35-0.2c-0.39-0.23-1.1-0.64-1.41-0.68c-0.31,0.17-0.36,0.23-0.65,0.86
	c-0.01,0.06,0.01,0.29,0.03,0.44c0.07,0.63,0.22,2.09-1.54,2.72l-0.86,0.31l-0.38-0.83c-1.09-2.35-0.93-4.49,0.47-6.35
	c0.7-0.93,1.6-1.88,2.89-1.88c0.63,0,1.2,0.22,1.82,0.5l0-1.28c0.01-1.76,0.01-3.45-0.01-5.19c-0.02-1.7,0.09-3.46,0.18-5.16
	c0.08-1.47,0.17-2.99,0.18-4.44c0.01-1.35,0.07-2.72,0.12-4.05c0.09-2.22,0.19-4.51,0.05-6.72c-0.38-5.75,1.63-11.02,3.64-15.42
	c1.84-4.02,4.43-7.19,7.92-9.7c1.23-0.89,2.53-1.71,3.77-2.51c0.89-0.57,1.78-1.14,2.65-1.73c2.75-1.87,4.5-4.86,5.19-8.88
	c0.42-2.44,0.41-5.04,0.41-7.56c0-0.91,0-1.82,0.01-2.73c0.03-1.58,0.04-3.15,0.04-4.73c0.01-2.17,0.02-4.41,0.09-6.62
	c0.03-0.92,0.84-2.09,1.72-2.49c1.87-0.85,3.89-1.29,5.98-1.29c1.95,0,3.98,0.36,6.2,1.09c0.83,0.28,1.79,1.38,1.74,2.34
	c-0.14,2.39-0.4,4.75-0.75,7.55c-0.15,1.25-0.34,2.5-0.52,3.76c-0.21,1.46-0.42,2.92-0.59,4.39c-0.12,1.08-0.21,2.17-0.29,3.25
	c-0.12,1.61-0.24,3.27-0.51,4.91c-0.54,3.33,1.12,7.36,3.69,8.97c5.19,3.26,8.77,7.18,10.94,11.98c1.27,2.8,2.45,5.87,2.51,9.33
	c0.09,4.7,0.11,9.48,0.13,14.11l0.01,2.63c0,0.7,0.01,1.35,0.08,1.5c0.11,0.07,0.77,0.23,1.41,0.37c0.56,0.13,1.06,0.32,1.49,0.57
	c3.04,1.75,5.33,4.33,6.63,7.47c2.31,5.57,2.74,10.81,1.28,15.58c-1.83,6-4.54,12.31-10.7,13.71c-0.06,0.05-0.13,0.14-0.16,0.21
	l0.07,1.73c0.12,2.91,0.2,4.83,0.69,8.08c0.67,4.51,2.31,9.12,5,14.09c2.5,4.6,5.88,8.69,10.06,12.17
	c3.29,2.73,7.23,4.86,10.67,6.64c4.69,2.43,10.14,3.68,16.67,3.85c0.47,0.01,0.93,0.02,1.39,0.02c6.5,0,12.44-1.18,17.65-3.52
	l0.38-0.17c3.07-1.38,6.25-2.8,8.92-4.74c2.55-1.86,4.9-4.13,7.18-6.34c0.71-0.69,1.42-1.37,2.13-2.05
	c1.02-0.97,2.38-1.52,3.72-1.52c0.9,0,1.73,0.26,2.41,0.74c1.77,1.27,2.27,4,1.09,5.95c-2.94,4.88-6.36,9.21-10.45,13.23
	c-3.73,3.67-7.58,6.57-11.74,8.86c-8.95,4.91-18.54,7.4-28.51,7.4c0,0-0.56,0-0.56,0c-12.11-0.11-23.39-3.73-33.51-10.75
	c-5.9-4.1-11.1-9.59-15.87-16.79c-0.26-0.39-0.5-0.79-0.73-1.19c-1.56,5.48-4.2,10.9-8.03,16.48c-4.03,5.87-9.14,10.92-15.2,14.99
	c-6.62,4.44-13.92,7.48-21.7,9.02C76.63,210.63,72.88,211,69.15,211z"/>
<path d="M222.92,163.51c-1.38-0.99-3.5-0.59-4.86,0.69c-3.07,2.9-6.01,6-9.41,8.47c-2.86,2.08-6.22,3.55-9.48,5.01
	c-6.18,2.77-12.77,3.75-19.48,3.59c-5.93-0.15-11.79-1.21-17.1-3.96c-3.78-1.96-7.6-4.06-10.85-6.76c-4.15-3.45-7.67-7.6-10.3-12.46
	c-2.47-4.56-4.35-9.32-5.11-14.41c-0.59-3.96-0.59-6.01-0.78-10.03c-0.02-0.37,0.49-1.03,0.85-1.11c5.99-1.3,8.47-7.85,10.05-13.05
	c1.55-5.07,0.73-10.13-1.25-14.9c-1.22-2.93-3.36-5.35-6.2-6.99c-0.37-0.21-0.79-0.36-1.21-0.46c-2.29-0.53-2.26-0.52-2.27-2.85
	c-0.02-5.57-0.03-11.15-0.14-16.72c-0.06-3.16-1.13-6.06-2.43-8.94c-2.27-5.03-5.97-8.66-10.56-11.54
	c-3.05-1.92-4.73-6.38-4.15-9.98c0.43-2.68,0.48-5.41,0.79-8.11c0.31-2.72,0.77-5.43,1.11-8.15c0.31-2.49,0.59-4.99,0.74-7.49
	c0.03-0.44-0.59-1.18-1.05-1.33c-3.82-1.27-7.68-1.56-11.45,0.15c-0.53,0.24-1.12,1.05-1.14,1.62c-0.12,3.77-0.06,7.55-0.13,11.33
	c-0.07,3.49,0.15,7.03-0.44,10.44c-0.64,3.75-2.24,7.25-5.61,9.54c-2.12,1.44-4.32,2.74-6.4,4.23c-3.35,2.41-5.85,5.48-7.6,9.3
	c-2.2,4.8-3.9,9.71-3.55,14.94c0.24,3.59-0.15,7.22-0.17,10.83c-0.02,3.13-0.39,6.44-0.36,9.58c0.02,2.64,0,5.17,0,8
	c-2.29-0.86-3.06-1.98-4.91,0.47c-1.26,1.66-1.25,3.42-0.36,5.33c1.55-0.55,0.57-1.82,0.93-2.64c0.37-0.82,0.53-1.03,1.16-1.37
	c0.77-0.41,2.34,0.85,3.19,1.21c0,0-0.06,1.21,0,2c0.35,4.29,0.05,5.76,0,9c-0.04,2.39,0,5.61,0,8c0,2.16,0,17-1,19
	c-1.29,2.59-3.87,1.54-6.58,1.47c-5.61-0.15-11.21-1.09-14.72-5.88c-1.03-1.41-1.8-2.96-2.54-4.54c-0.17-0.34-0.33-0.68-0.48-1.03
	c-0.23-0.49-0.45-0.98-0.69-1.47c-0.7-1.45-1.43-3.52-2.67-4.64c-2.16,1.54-2.2,4.04-2.59,6.32c-0.9,5.18-0.43,10.3,1.5,15.19
	c2.38,6.04,6.09,10.96,12.5,13.22c3.12,1.1,6.32,1.06,9.49,0.07c1.22-0.38,2.42-0.81,3.9-1.31c-0.76,1.86-1.36,3.66-2.22,5.33
	c-2.2,4.31-4.93,8.21-8.21,11.84c-3.21,3.55-6.73,6.56-11.16,8.18c-4.17,1.52-8.59,1.91-12.99,0.55c-3.78-1.18-7.14-3.07-10.03-5.8
	c-0.89-0.85-1.79-1.75-2.83-2.37c-1.7-1-3.78-0.45-4.85,1.06c-1.21,1.72-1.17,3.69,0.49,5.07c3.01,2.51,6.03,5.07,9.32,7.18
	c5.41,3.47,11.35,5.85,17.67,7.19c7.9,1.68,15.8,1.9,23.78,0.32c7.74-1.53,14.82-4.5,21.33-8.87c5.9-3.96,10.94-8.88,14.94-14.72
	c3.67-5.36,6.64-11.14,8.25-17.52c0.05-0.2,0.2-0.37,0.41-0.75c0.63,1.08,1.15,2.07,1.76,3c4.25,6.41,9.26,12.11,15.61,16.52
	c9.9,6.87,20.88,10.46,32.95,10.57c10.16,0.09,19.71-2.4,28.59-7.27c4.23-2.32,8.03-5.26,11.52-8.7c4-3.94,7.42-8.26,10.29-13.04
	C224.68,166.58,224.21,164.44,222.92,163.51z"/>
<path d="M142.18,127.32c-0.65,0.66-1.23,0.65-1.91-0.06c-4.38-4.49-8.8-8.94-13.18-13.42c-1.18-1.21-1.33-3.27-0.42-4.95
	c5.57,5.6,11.13,11.19,16.85,16.94C143.11,126.3,142.66,126.82,142.18,127.32z"/>
<path d="M146.39,111.67c1.01,0.99,1.62,2.04,1.37,3.41c-0.37,2.09-0.86,4.15-1.36,6.52c-0.71-0.59-1.23-0.94-1.67-1.38
	c-2.02-2.06-3.98-4.18-6.03-6.21c-2.83-2.81-5.75-5.52-8.56-8.35c-1.82-1.84-1.66-2.85,0.39-4.5c0.46-0.37,0.86-0.8,1.27-1.22
	c1.09-1.13,1.81-1.05,2.92,0.08C138.59,103.92,142.46,107.82,146.39,111.67z"/>
<path d="M109.37,113.57c-1.87-1.89-3.64-3.9-5.63-5.65c-2.02-1.78-2.11-2.23,0.09-3.76c0.34-0.24,0.73-0.41,1.06-0.6
	c0.89,0.8,1.76,1.51,2.55,2.3c3.36,3.35,6.67,6.75,10.07,10.06c2.37,2.31,2.81,4.13,1.34,6.93c-0.5-0.4-1.04-0.75-1.48-1.19
	C114.69,118.98,112.04,116.27,109.37,113.57z"/>
<path d="M116.94,128.17c-1.11,1.34-2.32,2.61-3.57,3.83c-0.15,0.15-0.85-0.05-1.11-0.28c-1.68-1.56-3.31-3.17-4.95-4.78
	c-2.03-1.98-4.06-3.94-6.06-5.94c-1.05-1.05-2.58-1.98-2.98-3.25c-0.79-2.51,0.38-4.96,1.11-7.35c0.2-0.05,0.41-0.09,0.61-0.14
	c1.75,1.85,3.48,3.73,5.27,5.54c3.67,3.71,7.38,7.38,11.04,11.1C116.63,127.23,117.06,128.02,116.94,128.17z"/>
<path d="M132.32,139.91c-0.64-0.24-1.37-0.3-2.06-0.35c-6.61-0.5-13.22-0.99-19.84-1.43c-0.49-0.03-1,0.39-1.5,0.6
	c0.5,0.33,0.95,0.8,1.5,0.94c0.89,0.24,1.84,0.27,3.2,0.45c-0.28,0.22-0.55,0.43-0.81,0.64c3.1,0.28,6.22,0.37,9.32,0.76
	c0.85-0.49,1.78-0.78,2.94-0.59c2.32,0.37,4.7,0.45,7.05,0.57c0.4,0.02,0.83-0.38,1.25-0.59
	C133.02,140.56,132.74,140.07,132.32,139.91z"/>
<path class="st0" d="M222.93,167.16c-0.31-1.28-1.97-1.26-3.13-0.19c-2.97,2.76-5.72,5.86-9.05,8.09
	c-3.79,2.54-7.97,4.66-12.25,6.25c-3.78,1.4-7.89,2.1-11.91,2.59c-6.7,0.83-13.3-0.01-19.71-2.26c-7.39-2.6-13.63-6.9-18.94-12.59
	c-4.35-4.67-7.44-10.16-9.53-16.1c-1.96-5.6-2.99-11.45-2.6-17.45c0.1-1.57-0.2-2.62-2.03-3.08c-3.63-0.92-5.69-3.66-7.14-6.9
	c-0.53-1.19-0.97-2.44-1.31-3.7c-0.41-1.51-1.52-1.12-2.55-1.14c-1.2-0.02-1.25,0.67-1.4,1.62c-0.88,5.51-2.51,10.63-7.74,13.73
	c-3.11,1.84-8.09,1.34-10.64-1.22c-0.99-1-1.81-2.18-2.81-3.17c-0.41-0.41-3.17-7.05-3.48-8.25c-0.18-0.7,0.11-1.53,0.15-1.92
	c-0.74-0.52-1.56-1.54-2.17-1.8c-1.61-0.7-5.69-2.47-5.9-2.63c0,4.43-0.36,28.4-0.4,28.42c-0.13-0.57,0.19,11.97-1.38,17.58
	c-0.73,2.61-3.44,9.13-3.61,9.26c0.37,0.65-3.18,7.13-3.13,7.1c0,0.97-4.72,8.15-5.36,9.5c0.01,0.06-0.1,0.67,0.13,0.85
	c0.41,0.32,1.17,0.69,1.53,0.52c1.38-0.66,2.62-1.64,4.01-2.29c0.68-0.31,1.58-0.14,2.39-0.19c0.09,0.23,0.17,0.47,0.26,0.7
	c-0.96,0.84-1.84,1.81-2.89,2.51c-4.26,2.83-8.79,5.13-13.82,6.25c-3.91,0.87-7.81,1.85-11.77,2.39c-4.74,0.64-9.17-0.71-13.15-3.27
	c-2.21-1.42-4.18-3.19-6.29-4.77c-0.6-0.45-1.28-0.78-1.93-1.17c-0.11,0.16-0.23,0.32-0.34,0.48c1.58,1.31,3.03,2.83,4.76,3.9
	c3.63,2.24,7.33,4.41,11.14,6.32c4.24,2.12,8.81,3.37,13.53,3.78c4.26,0.37,8.57,0.73,12.82,0.5c3.61-0.2,7.19-1.16,10.75-1.94
	c4.85-1.07,9.19-3.38,13.46-5.81c3.55-2.02,6.67-4.63,9.63-7.42c6.71-6.28,10.35-17.86,13.1-26.61c0.13-0.4,0.23-0.83,0.41-1.2
	c0.59-1.2,1.07-1.19,1.97-0.21c4.34,4.67,9.44,13.62,14.17,17.87c3.64,3.28,7.88,6.05,12.22,8.35c5.08,2.69,10.76,3.79,16.54,4.1
	c3.6,0.19,7.22,0.69,10.81,0.51c6.1-0.31,12.25-0.64,18.07-2.85c2.42-0.92,4.91-1.7,7.28-2.72c3.71-1.59,7.08-3.67,10.01-6.53
	c3.45-3.35,6.19-7.21,8.76-11.21C222.91,169.01,223.12,167.93,222.93,167.16z M132.03,143.48c-2.32-0.12-15.94-1-18.23-1.36
	c-1.34-0.17-2.28-0.2-3.15-0.44c-0.54-0.14-0.99-0.61-1.48-0.93c0.49-0.21,1-0.62,1.48-0.59c6.52,0.43,13.03,0.92,19.55,1.41
	c0.69,0.05,1.4,0.11,2.03,0.35c0.41,0.15,0.69,0.64,1.02,0.98C132.85,143.1,132.43,143.5,132.03,143.48z"/>
<path class="st0" d="M89.12,91.56c0.04,1.16-0.13,5.3-0.08,5.28c0,2.91,0.12,14.65,0.14,15.84c0.01,0.93,5.13,2.67,7.06,3.7
	c0.12-0.12,0.24-0.24,0.35-0.36c0.36-1.12,0.78-2.22,1.05-3.36c0.09-0.36,1.55-5.33,2.99-7.25c2.06-2.74,3.91-3.29,5.75-4.04
	c1.9-0.77,3.91-0.6,5.74,0.11c3.33,1.3,5.57,3.94,6.92,7.26c0.79,1.93,1.32,4.01,1.68,6.08c0.28,1.62,0.81,2.3,2.4,1.73
	c0.23-0.08,0.5-0.05,0.71-0.07c0.13-2.22,0.05-4.41,0.43-6.52c0.78-4.29,2.25-8.32,5.82-11.05c1.09-0.83,2.4-1.43,3.69-1.88
	c0.78-0.27,1.11-0.54,1.1-1.38c-0.14-6.79-0.19-13.57-0.42-20.35c-0.04-1.33-0.55-2.72-1.1-3.95c-1.12-2.48-2.17-4.98-4.23-6.93
	c-2.21-2.09-4.84-3.23-7.65-3.29c-4-0.09-6.04-2.74-8.11-5.54c-0.21-0.29-0.06-0.86-0.08-1.3c0.42,0.07,0.94,0,1.25,0.23
	c1,0.75,1.89,1.65,2.89,2.38c0.35,0.26,1.09,0.42,1.35,0.22c0.37-0.29,0.66-0.96,0.64-1.46c-0.03-0.83-0.28-1.67-0.52-2.48
	c-1.19-3.97,0.13-7.87,0.26-11.81c0.11-3.27,0.97-6.51,0.23-9.82c-0.53-2.38-2.57-4.31-4.96-4.46c-0.61-0.04-1.24-0.12-1.81-0.34
	c-0.46-0.17-0.84-0.57-1.26-0.87c0.49-0.28,0.97-0.75,1.48-0.8c1.94-0.19,3.89-0.24,5.83-0.35c0.19-0.01,0.38-0.1,0.63-0.17
	c-1.45-0.92-6.23-0.61-7.68-0.06c-2.2,0.83-0.98,14.62-0.99,14.88c-0.05,0.98-0.02,1.96-0.02,2.84c-0.17,2-0.35,4.53-0.62,6.07
	c-0.05,0.28-0.16,1.09-0.92,2.66c0.16,0.5-5.84,7.07-6,7.19c-1.23,0.9-6.56,3.14-8.4,6.29c-1.01,1.73-2.55,3.21-3.08,5.24
	c-0.27,1.05-0.56,2.01-1.01,3.02c-0.46,1.05-1.47,3.57-1.55,4.88C88.94,79.04,89.07,89.98,89.12,91.56z"/>
<path class="st0" d="M67.44,167.07c1.52,0.72,5.94,1.06,6.39,0.96c0.72,0,5.99-1.12,6.71-2.28c0.21-0.34,0.94-0.34,1.44-0.49
	c0.12,0.14,1.47-4.97,1.85-5.4c1.5-4.16,0.88-3.55-2.37-2.79c-0.33,0.08-4.24,0.06-4.62,0.06c-0.42,0-1.83-0.1-2.17-0.11
	c-0.67-0.02-5.19-0.23-8.79-2.59c-0.36-0.09-4.2-2.49-5.88-5.23c-1.52-3.04-2.41-5.37-3.39-7.42c-0.18-0.39,0.06-0.98,0.14-1.95
	c-0.47,1.17-2.41,3.04-1.57,9.6C58.14,164.03,67.39,166.37,67.44,167.07z"/>
<path class="st1" d="M146.4,121.59c0.5-2.37,0.99-4.43,1.36-6.52c0.24-1.37-0.36-2.42-1.37-3.41c-3.93-3.84-7.8-7.74-11.65-11.67
	c-1.11-1.13-1.84-1.21-2.92-0.08c-0.41,0.42-0.81,0.86-1.27,1.22c-2.05,1.65-2.2,2.66-0.39,4.5c2.8,2.83,5.73,5.54,8.56,8.35
	c2.05,2.03,4.01,4.15,6.03,6.21C145.17,120.65,145.69,121.01,146.4,121.59z"/>
<path class="st1" d="M100.31,110.72c-0.7,2.36-1.81,4.77-1.06,7.24c0.38,1.25,1.84,2.17,2.84,3.21c1.91,1.96,3.85,3.9,5.78,5.85
	c1.57,1.58,3.12,3.17,4.73,4.7c0.25,0.24,0.92,0.42,1.06,0.28c1.19-1.2,2.34-2.45,3.4-3.77c0.12-0.15-0.29-0.92-0.61-1.26
	c-3.5-3.66-7.04-7.27-10.54-10.93c-1.71-1.79-3.35-3.64-5.02-5.46C100.7,110.63,100.51,110.67,100.31,110.72z"/>
<path class="st1" d="M118.89,123c1.4-2.76,0.98-4.55-1.28-6.83c-3.24-3.26-6.4-6.62-9.61-9.91c-0.75-0.78-1.58-1.47-2.43-2.26
	c-0.31,0.18-0.69,0.35-1.01,0.59c-2.1,1.5-2.01,1.95-0.08,3.7c1.9,1.73,3.59,3.7,5.37,5.56c2.54,2.66,5.08,5.33,7.63,7.98
	C117.9,122.26,118.41,122.6,118.89,123z"/>
<path class="st1" d="M143.53,125.84c-5.73-5.76-11.28-11.34-16.85-16.94c-0.91,1.68-0.76,3.74,0.42,4.95
	c4.38,4.49,8.8,8.93,13.18,13.42c0.69,0.7,1.27,0.72,1.91,0.06C142.66,126.82,143.11,126.3,143.53,125.84z"/>
</svg>
