<?xml version="1.0" encoding="utf-8"?>
<!-- Generator: Adobe Illustrator 25.2.1, SVG Export Plug-In . SVG Version: 6.00 Build 0)  -->
<svg version="1.1" id="Calque_1" xmlns="http://www.w3.org/2000/svg" xmlns:xlink="http://www.w3.org/1999/xlink" x="0px" y="0px"
	 viewBox="0 0 161 154" style="enable-background:new 0 0 161 154;" xml:space="preserve">
<style type="text/css">
	.st0{fill:#4D4D4D;}
	.st1{fill:#FF7BAC;}
</style>
<g>
	<g>
		<path class="st0" d="M141.6,67.46c-3.58-32.86-30.49-52.95-62.38-53.57c-25.08,0.7-48.8,11.39-58.55,35.47
			c-9.59,23.7-5.16,53.36,13.41,71.19c19.88,19.08,47.28,23.2,72.44,12.27C131.16,122.1,144.45,93.6,141.6,67.46z M135.39,81.92
			c-4.41,32.56-33.13,57.02-66.95,50.51c-13.42-2.59-25.56-10.19-34.42-20.52C23.9,100.12,21.9,86.58,22.47,71.53
			c0.55-14.63,5.37-30.74,17.79-39.72c10.75-7.77,25.87-11.65,38.96-12.02C113.44,20.46,140.19,46.49,135.39,81.92z"/>
		<g>
			<g>
				<path class="st1" d="M38.05,86.7c2.02-2.01,4.41-3.58,6.65-5.32c0.95-0.73,0.77-2.36,0-3.13c-0.93-0.93-2.18-0.74-3.13,0
					c-2.25,1.74-4.62,3.31-6.65,5.32C32.89,85.58,36.02,88.71,38.05,86.7L38.05,86.7z"/>
			</g>
			<g>
				<path class="st1" d="M45.28,87.71c1.19-0.46,1.83-1.3,2.76-2.1c1.1-0.94,2.39-1.68,3.54-2.56c0.95-0.72,1.45-1.91,0.79-3.03
					c-0.55-0.94-2.07-1.52-3.03-0.79c-1.09,0.83-2.24,1.58-3.33,2.4c-0.46,0.34-0.93,0.68-1.35,1.08c-0.17,0.16-0.32,0.34-0.49,0.51
					c-0.22,0.23-0.82,0.51-0.07,0.22c-1.12,0.43-1.89,1.49-1.55,2.72C42.84,87.23,44.15,88.15,45.28,87.71L45.28,87.71z"/>
			</g>
			<g>
				<path class="st1" d="M111.56,88.26c0.91-0.77,1.95-1.42,2.94-2.1c0.99-0.69,1.86-1.53,2.84-2.22c0.98-0.68,1.43-1.94,0.79-3.03
					c-0.57-0.97-2.05-1.48-3.03-0.79c-1.1,0.77-2.07,1.69-3.17,2.45c-1.19,0.81-2.4,1.64-3.5,2.57c-0.91,0.77-0.8,2.34,0,3.13
					C109.33,89.17,110.64,89.04,111.56,88.26L111.56,88.26z"/>
			</g>
			<g>
				<path class="st1" d="M119.05,89.33c0.59-0.46,1.17-0.93,1.76-1.39c0.47-0.37,0.93-0.73,1.4-1.1c0.21-0.16,0.42-0.33,0.63-0.49
					c0.44-0.34-0.22,0.17,0.21-0.16c0.95-0.73,1.45-1.91,0.79-3.03c-0.55-0.93-2.07-1.53-3.03-0.79c-1.65,1.26-3.27,2.55-4.9,3.84
					c-0.94,0.74-0.78,2.36,0,3.13C116.84,90.26,118.11,90.07,119.05,89.33L119.05,89.33z"/>
			</g>
		</g>
		<g>
			<path class="st0" d="M56.29,57.01c-3.24-2.07-6.29-4.37-9.49-6.5c-2.38-1.59-4.6,2.24-2.24,3.83c1.98,1.32,3.82,2.83,5.8,4.14
				c0.58,0.39,3.14,2.53,4.71,3.38c-0.01,0.01-0.02,0.02-0.03,0.03c-1.13,0.35-2.31,1.4-3.34,2.03c-2.59,1.58-5.1,3.24-7.61,4.94
				c-2.34,1.59-0.13,5.43,2.24,3.83c3.58-2.44,7.39-4.54,10.96-6.97c1.45-0.99,3.32-2.44,3.14-4.41
				C60.23,59.19,57.85,58.01,56.29,57.01z"/>
			<path class="st0" d="M114.66,68.85c-2.32-1.58-4.63-3.14-7.04-4.6c-1.18-0.72-2.6-1.97-3.92-2.37c-0.05-0.04-0.1-0.07-0.15-0.11
				c1.49-0.8,3.01-2.1,4.31-2.95c2.16-1.42,4.17-3.05,6.32-4.49c2.36-1.58,0.14-5.42-2.24-3.83c-3.19,2.14-6.24,4.43-9.49,6.5
				c-1.57,1-3.94,2.18-4.13,4.29c-0.18,1.98,1.69,3.41,3.14,4.41c3.55,2.45,7.38,4.54,10.96,6.97
				C114.79,74.29,117.01,70.45,114.66,68.85z"/>
		</g>
		<path class="st0" d="M102.32,82.18c-0.02-0.23-0.11-0.4-0.18-0.59c-0.03-0.1-0.05-0.19-0.09-0.29c-0.02-0.03-0.03-0.06-0.05-0.09
			c-0.31-0.69-0.92-1.23-1.9-1.25c-13.76-0.24-27.53,0.18-41.29,0.01c-0.09,0-0.16,0.04-0.24,0.05c-0.23,0.01-0.46,0.05-0.67,0.13
			c-0.01,0-0.02,0.01-0.03,0.01c-0.55,0.21-1.01,0.67-1.19,1.44c-2.77,12.03,5.04,23.33,17.05,25.37
			C91.32,109.96,104.03,99.95,102.32,82.18z M95.97,95.77c-4.18,7.17-14.16,8.1-21.57,6.79c-8.8-1.56-14.89-9.33-13.74-18.15
			c12.46,0.11,24.93-0.2,37.39-0.04C98.27,88.29,97.97,92.34,95.97,95.77z"/>
	</g>
	<path class="st1" d="M95.97,95.77c-4.18,7.17-14.16,8.1-21.57,6.79c-8.8-1.56-14.89-9.33-13.74-18.15
		c12.46,0.11,24.93-0.2,37.39-0.04C98.27,88.29,97.97,92.34,95.97,95.77z"/>
</g>
</svg>
