<?xml version="1.0" encoding="utf-8"?>
<!-- Generator: Adobe Illustrator 25.2.1, SVG Export Plug-In . SVG Version: 6.00 Build 0)  -->
<svg version="1.1" id="Calque_1" xmlns="http://www.w3.org/2000/svg" xmlns:xlink="http://www.w3.org/1999/xlink" x="0px" y="0px"
	 viewBox="0 0 161 154" style="enable-background:new 0 0 161 154;" xml:space="preserve">
<style type="text/css">
	.st0{fill:#FDF2C0;}
	.st1{fill:#FBE84E;}
	.st2{fill:#FFFFFF;}
</style>
<circle class="st0" cx="80" cy="76" r="75"/>
<g>
	<path d="M53.38,122.07c-2.38,0-4.84-0.26-7.31-0.79c-3.65-0.77-7.05-2.16-10.09-4.11c-1.75-1.13-3.38-2.48-4.96-3.79l-0.33-0.27
		c-1.12-0.92-1.26-2.34-0.37-3.59c0.49-0.7,1.29-1.12,2.15-1.12c0.46,0,0.91,0.12,1.31,0.36c0.58,0.34,1.05,0.8,1.51,1.24l0.17,0.17
		c1.5,1.42,3.32,2.48,5.4,3.12c0.95,0.3,1.94,0.44,2.94,0.44c1.29,0,2.63-0.25,3.99-0.74c2.09-0.76,3.95-2.13,6.03-4.43
		c1.84-2.03,3.32-4.16,4.52-6.51c0.29-0.57,0.53-1.17,0.78-1.81c-0.36,0.12-0.71,0.24-1.05,0.35c-0.95,0.3-1.89,0.45-2.82,0.45
		c-0.97,0-1.93-0.16-2.85-0.49c-3.36-1.18-5.76-3.72-7.34-7.74c-1.1-2.81-1.4-5.77-0.87-8.81c0.03-0.18,0.06-0.38,0.09-0.56
		c0.17-1.15,0.36-2.47,1.59-3.34l0.36-0.26l0.34,0.3c0.63,0.57,1.03,1.46,1.38,2.24c0.08,0.19,0.16,0.37,0.25,0.53
		c0.13,0.27,0.26,0.55,0.39,0.83c0.08,0.2,0.17,0.38,0.26,0.56c0.37,0.79,0.8,1.69,1.37,2.47c1.88,2.57,5.01,2.99,7.81,3.07
		c0.36,0.01,0.7,0.04,1.03,0.08c0.33,0.03,0.64,0.07,0.93,0.07c0.65,0,0.97-0.17,1.22-0.67c0.23-0.45,0.49-3.44,0.5-10.35
		c0-0.52,0-1.03-0.01-1.57c-0.01-1.02-0.01-2.1,0.01-2.98c0.01-0.55,0.03-1.01,0.05-1.45c0.04-1.01,0.08-1.89-0.04-3.54
		c-0.02-0.26-0.02-0.58-0.02-0.83c-0.07-0.04-0.13-0.07-0.2-0.11c-0.22-0.13-0.62-0.36-0.79-0.38c-0.17,0.1-0.2,0.13-0.36,0.48
		c-0.01,0.03,0.01,0.16,0.02,0.25c0.04,0.35,0.12,1.17-0.86,1.52l-0.48,0.17l-0.21-0.47c-0.61-1.32-0.52-2.52,0.26-3.56
		c0.39-0.52,0.9-1.05,1.62-1.05c0.35,0,0.67,0.12,1.02,0.28v-0.72c0.01-0.99,0.01-1.93-0.01-2.91c-0.01-0.95,0.05-1.94,0.1-2.89
		c0.04-0.82,0.1-1.68,0.1-2.49c0.01-0.76,0.04-1.52,0.07-2.27c0.05-1.24,0.11-2.53,0.03-3.77c-0.21-3.22,0.91-6.18,2.04-8.64
		c1.03-2.25,2.48-4.03,4.44-5.44c0.69-0.5,1.42-0.96,2.11-1.41c0.5-0.32,1-0.64,1.49-0.97c1.54-1.05,2.52-2.72,2.91-4.98
		c0.24-1.37,0.23-2.83,0.23-4.24c0-0.51,0-1.02,0.01-1.53c0.02-0.89,0.02-1.77,0.02-2.65c0.01-1.22,0.01-2.47,0.05-3.71
		c0.02-0.52,0.47-1.17,0.96-1.4c1.05-0.48,2.18-0.72,3.35-0.72c1.09,0,2.23,0.2,3.48,0.61c0.47,0.16,1,0.77,0.98,1.31
		c-0.08,1.34-0.22,2.66-0.42,4.23c-0.08,0.7-0.19,1.4-0.29,2.11c-0.12,0.82-0.24,1.64-0.33,2.46c-0.07,0.61-0.12,1.22-0.16,1.82
		c-0.07,0.9-0.13,1.83-0.29,2.75c-0.3,1.87,0.63,4.13,2.07,5.03c2.91,1.83,4.92,4.02,6.13,6.72c0.71,1.57,1.37,3.29,1.41,5.23
		c0.05,2.63,0.06,5.31,0.07,7.91l0.01,1.47c0,0.39,0.01,0.76,0.04,0.84c0.06,0.04,0.43,0.13,0.79,0.21
		c0.31,0.07,0.59,0.18,0.84,0.32c1.7,0.98,2.99,2.43,3.72,4.19c1.29,3.12,1.54,6.06,0.72,8.73c-1.03,3.36-2.54,6.9-6,7.68
		c-0.03,0.03-0.07,0.08-0.09,0.12l0.04,0.97c0.07,1.63,0.11,2.71,0.39,4.53c0.38,2.53,1.29,5.11,2.8,7.9
		c1.4,2.58,3.3,4.87,5.64,6.82c1.84,1.53,4.05,2.72,5.98,3.72c2.63,1.36,5.68,2.06,9.34,2.16c0.26,0.01,0.52,0.01,0.78,0.01
		c3.64,0,6.97-0.66,9.89-1.97l0.21-0.1c1.72-0.77,3.5-1.57,5-2.66c1.43-1.04,2.75-2.31,4.02-3.55c0.4-0.39,0.8-0.77,1.19-1.15
		c0.57-0.54,1.33-0.85,2.09-0.85c0.5,0,0.97,0.15,1.35,0.41c0.99,0.71,1.27,2.24,0.61,3.34c-1.65,2.74-3.56,5.16-5.86,7.42
		c-2.09,2.06-4.25,3.68-6.58,4.97c-5.02,2.75-10.39,4.15-15.98,4.15h-0.31c-6.79-0.06-13.11-2.09-18.78-6.03
		c-3.31-2.3-6.22-5.38-8.9-9.41c-0.15-0.22-0.28-0.44-0.41-0.67c-0.87,3.07-2.35,6.11-4.5,9.24c-2.26,3.29-5.12,6.12-8.52,8.4
		c-3.71,2.49-7.8,4.19-12.16,5.06C57.58,121.86,55.47,122.07,53.38,122.07z"/>
	<path d="M139.57,95.45c-0.77-0.55-1.96-0.33-2.72,0.39c-1.72,1.63-3.37,3.36-5.27,4.75c-1.6,1.17-3.49,1.99-5.31,2.81
		c-3.46,1.55-7.16,2.1-10.92,2.01c-3.32-0.08-6.61-0.68-9.58-2.22c-2.12-1.1-4.26-2.28-6.08-3.79c-2.33-1.93-4.3-4.26-5.77-6.98
		c-1.38-2.56-2.44-5.22-2.86-8.08c-0.33-2.22-0.33-3.37-0.44-5.62c-0.01-0.21,0.27-0.58,0.48-0.62c3.36-0.73,4.75-4.4,5.63-7.31
		c0.87-2.84,0.41-5.68-0.7-8.35c-0.68-1.64-1.88-3-3.48-3.92c-0.21-0.12-0.44-0.2-0.68-0.26c-1.28-0.3-1.27-0.29-1.27-1.6
		c-0.01-3.12-0.02-6.25-0.08-9.37c-0.03-1.77-0.63-3.4-1.36-5.01c-1.27-2.82-3.35-4.85-5.92-6.47c-1.71-1.08-2.65-3.58-2.33-5.59
		c0.24-1.5,0.27-3.03,0.44-4.55c0.17-1.52,0.43-3.04,0.62-4.57c0.17-1.4,0.33-2.8,0.41-4.2c0.02-0.25-0.33-0.66-0.59-0.75
		c-2.14-0.71-4.3-0.87-6.42,0.08c-0.3,0.13-0.63,0.59-0.64,0.91c-0.07,2.11-0.03,4.23-0.07,6.35c-0.04,1.96,0.08,3.94-0.25,5.85
		c-0.36,2.1-1.26,4.06-3.14,5.35c-1.19,0.81-2.42,1.54-3.59,2.37c-1.88,1.35-3.28,3.07-4.26,5.21c-1.23,2.69-2.19,5.44-1.99,8.37
		c0.13,2.01-0.08,4.05-0.1,6.07c-0.01,1.75-0.22,3.61-0.2,5.37c0.01,1.48,0,2.9,0,4.48c-1.28-0.48-1.72-1.11-2.75,0.26
		c-0.71,0.93-0.7,1.92-0.2,2.99c0.87-0.31,0.32-1.02,0.52-1.48c0.21-0.46,0.3-0.58,0.65-0.77c0.43-0.23,1.31,0.48,1.79,0.68
		c0,0-0.03,0.68,0,1.12c0.2,2.4,0.03,3.23,0,5.04c-0.02,1.34,0,3.14,0,4.48c0,1.21,0,9.53-0.56,10.65
		c-0.72,1.45-2.17,0.86-3.69,0.82c-3.14-0.08-6.28-0.61-8.25-3.3c-0.58-0.79-1.01-1.66-1.42-2.54c-0.1-0.19-0.18-0.38-0.27-0.58
		c-0.13-0.27-0.25-0.55-0.39-0.82c-0.39-0.81-0.8-1.97-1.5-2.6c-1.21,0.86-1.23,2.26-1.45,3.54c-0.5,2.9-0.24,5.77,0.84,8.51
		c1.33,3.39,3.41,6.14,7.01,7.41c1.75,0.62,3.54,0.59,5.32,0.04c0.68-0.21,1.36-0.45,2.19-0.73c-0.43,1.04-0.76,2.05-1.24,2.99
		c-1.23,2.42-2.76,4.6-4.6,6.64c-1.8,1.99-3.77,3.68-6.26,4.59c-2.34,0.85-4.81,1.07-7.28,0.31c-2.12-0.66-4-1.72-5.62-3.25
		c-0.5-0.48-1-0.98-1.59-1.33c-0.95-0.56-2.12-0.25-2.72,0.59c-0.68,0.96-0.66,2.07,0.27,2.84c1.69,1.41,3.38,2.84,5.22,4.02
		c3.03,1.95,6.36,3.28,9.9,4.03c4.43,0.94,8.86,1.06,13.33,0.18c4.34-0.86,8.31-2.52,11.96-4.97c3.31-2.22,6.13-4.98,8.37-8.25
		c2.06-3,3.72-6.24,4.62-9.82c0.03-0.11,0.11-0.21,0.23-0.42c0.35,0.61,0.64,1.16,0.99,1.68c2.38,3.59,5.19,6.79,8.75,9.26
		c5.55,3.85,11.7,5.86,18.47,5.92c5.69,0.05,11.05-1.35,16.03-4.08c2.37-1.3,4.5-2.95,6.46-4.88c2.24-2.21,4.16-4.63,5.77-7.31
		C140.56,97.17,140.3,95.97,139.57,95.45z"/>
	<path d="M94.32,75.16c-0.36,0.37-0.69,0.36-1.07-0.03c-2.46-2.52-4.93-5.01-7.39-7.52c-0.66-0.68-0.75-1.83-0.24-2.77
		c3.12,3.14,6.24,6.27,9.44,9.5C94.84,74.59,94.59,74.88,94.32,75.16z"/>
	<path d="M96.68,66.39c0.57,0.55,0.91,1.14,0.77,1.91c-0.21,1.17-0.48,2.33-0.76,3.65c-0.4-0.33-0.69-0.53-0.94-0.77
		c-1.13-1.15-2.23-2.34-3.38-3.48c-1.59-1.58-3.22-3.09-4.8-4.68c-1.02-1.03-0.93-1.6,0.22-2.52c0.26-0.21,0.48-0.45,0.71-0.68
		c0.61-0.63,1.01-0.59,1.64,0.04C92.31,62.04,94.47,64.23,96.68,66.39z"/>
	<path d="M75.93,67.45c-1.05-1.06-2.04-2.19-3.16-3.17c-1.13-1-1.18-1.25,0.05-2.11c0.19-0.13,0.41-0.23,0.59-0.34
		c0.5,0.45,0.99,0.85,1.43,1.29c1.88,1.88,3.74,3.78,5.64,5.64c1.33,1.29,1.58,2.31,0.75,3.88c-0.28-0.22-0.58-0.42-0.83-0.67
		C78.91,70.49,77.42,68.97,75.93,67.45z"/>
	<path d="M80.17,75.64c-0.62,0.75-1.3,1.46-2,2.15c-0.08,0.08-0.48-0.03-0.62-0.16c-0.94-0.87-1.86-1.78-2.77-2.68
		c-1.14-1.11-2.28-2.21-3.4-3.33c-0.59-0.59-1.45-1.11-1.67-1.82c-0.44-1.41,0.21-2.78,0.62-4.12c0.11-0.03,0.23-0.05,0.34-0.08
		c0.98,1.04,1.95,2.09,2.95,3.11c2.06,2.08,4.14,4.14,6.19,6.22C80,75.11,80.24,75.55,80.17,75.64z"/>
	<path d="M88.79,82.22c-0.36-0.13-0.77-0.17-1.15-0.2c-3.71-0.28-7.41-0.55-11.12-0.8c-0.27-0.02-0.56,0.22-0.84,0.34
		c0.28,0.18,0.53,0.45,0.84,0.53c0.5,0.13,1.03,0.15,1.79,0.25c-0.16,0.12-0.31,0.24-0.45,0.36c1.74,0.16,3.49,0.21,5.22,0.43
		c0.48-0.27,1-0.44,1.65-0.33c1.3,0.21,2.63,0.25,3.95,0.32c0.22,0.01,0.47-0.21,0.7-0.33C89.18,82.58,89.03,82.31,88.79,82.22z"/>
	<path class="st1" d="M139.58,97.49c-0.17-0.72-1.1-0.71-1.75-0.11c-1.66,1.55-3.21,3.28-5.07,4.53c-2.12,1.42-4.47,2.61-6.87,3.5
		c-2.12,0.78-4.42,1.18-6.68,1.45c-3.76,0.47-7.45-0.01-11.05-1.27c-4.14-1.46-7.64-3.87-10.62-7.06c-2.44-2.62-4.17-5.69-5.34-9.02
		c-1.1-3.14-1.68-6.42-1.46-9.78c0.06-0.88-0.11-1.47-1.14-1.73c-2.03-0.52-3.19-2.05-4-3.87c-0.3-0.67-0.54-1.37-0.73-2.07
		c-0.23-0.85-0.85-0.63-1.43-0.64c-0.67-0.01-0.7,0.38-0.78,0.91c-0.49,3.09-1.41,5.96-4.34,7.7c-1.74,1.03-4.53,0.75-5.96-0.68
		c-0.55-0.56-1.01-1.22-1.58-1.78c-0.23-0.23-1.78-3.95-1.95-4.62c-0.1-0.39,0.06-0.86,0.08-1.08c-0.41-0.29-0.87-0.86-1.22-1.01
		c-0.9-0.39-3.19-1.38-3.31-1.47c0,2.48-0.2,15.92-0.22,15.93c-0.07-0.32,0.11,6.71-0.77,9.85c-0.41,1.46-1.93,5.12-2.02,5.19
		c0.21,0.36-1.78,4-1.75,3.98c0,0.54-2.65,4.57-3,5.32c0.01,0.03-0.06,0.38,0.07,0.48c0.23,0.18,0.66,0.39,0.86,0.29
		c0.77-0.37,1.47-0.92,2.25-1.28c0.38-0.17,0.89-0.08,1.34-0.11c0.05,0.13,0.1,0.26,0.15,0.39c-0.54,0.47-1.03,1.01-1.62,1.41
		c-2.39,1.59-4.93,2.88-7.75,3.5c-2.19,0.49-4.38,1.04-6.6,1.34c-2.66,0.36-5.14-0.4-7.37-1.83c-1.24-0.8-2.34-1.79-3.53-2.67
		c-0.34-0.25-0.72-0.44-1.08-0.66c-0.06,0.09-0.13,0.18-0.19,0.27c0.89,0.73,1.7,1.59,2.67,2.19c2.03,1.26,4.11,2.47,6.24,3.54
		c2.38,1.19,4.94,1.89,7.58,2.12c2.39,0.21,4.8,0.41,7.19,0.28c2.02-0.11,4.03-0.65,6.03-1.09c2.72-0.6,5.15-1.89,7.54-3.26
		c1.99-1.13,3.74-2.6,5.4-4.16c3.76-3.52,5.8-10.01,7.34-14.92c0.07-0.22,0.13-0.47,0.23-0.67c0.33-0.67,0.6-0.67,1.1-0.12
		c2.43,2.62,5.29,7.63,7.94,10.02c2.04,1.84,4.42,3.39,6.85,4.68c2.85,1.51,6.03,2.12,9.27,2.3c2.02,0.11,4.05,0.39,6.06,0.29
		c3.42-0.17,6.87-0.36,10.13-1.6c1.36-0.52,2.75-0.95,4.08-1.52c2.08-0.89,3.97-2.06,5.61-3.66c1.93-1.88,3.47-4.04,4.91-6.28
		C139.57,98.53,139.69,97.92,139.58,97.49z M88.63,84.22c-1.3-0.07-8.93-0.56-10.22-0.76c-0.75-0.1-1.28-0.11-1.77-0.25
		c-0.3-0.08-0.55-0.34-0.83-0.52c0.27-0.12,0.56-0.35,0.83-0.33c3.65,0.24,7.3,0.52,10.96,0.79c0.39,0.03,0.78,0.06,1.14,0.2
		c0.23,0.08,0.39,0.36,0.57,0.55C89.09,84.01,88.85,84.23,88.63,84.22z"/>
	<path class="st1" d="M64.58,55.12c0.02,0.65-0.07,2.97-0.04,2.96c0,1.63,0.07,8.21,0.08,8.88c0.01,0.52,2.88,1.5,3.96,2.07
		c0.07-0.07,0.13-0.13,0.2-0.2c0.2-0.63,0.44-1.24,0.59-1.88c0.05-0.2,0.87-2.99,1.68-4.06c1.15-1.54,2.19-1.84,3.22-2.26
		c1.06-0.43,2.19-0.34,3.22,0.06c1.87,0.73,3.12,2.21,3.88,4.07c0.44,1.08,0.74,2.25,0.94,3.41c0.16,0.91,0.45,1.29,1.35,0.97
		c0.13-0.04,0.28-0.03,0.4-0.04c0.07-1.24,0.03-2.47,0.24-3.65c0.44-2.4,1.26-4.66,3.26-6.19c0.61-0.47,1.35-0.8,2.07-1.05
		c0.44-0.15,0.62-0.3,0.62-0.77C90.14,53.6,90.11,49.8,89.99,46c-0.02-0.75-0.31-1.52-0.62-2.21C88.74,42.4,88.15,41,87,39.9
		c-1.24-1.17-2.71-1.81-4.29-1.84c-2.24-0.05-3.39-1.54-4.55-3.11c-0.12-0.16-0.03-0.48-0.04-0.73c0.24,0.04,0.53,0,0.7,0.13
		c0.56,0.42,1.06,0.92,1.62,1.33c0.2,0.15,0.61,0.24,0.76,0.12c0.21-0.16,0.37-0.54,0.36-0.82c-0.02-0.47-0.16-0.94-0.29-1.39
		c-0.67-2.23,0.07-4.41,0.15-6.62c0.06-1.83,0.54-3.65,0.13-5.5c-0.3-1.33-1.44-2.42-2.78-2.5c-0.34-0.02-0.7-0.07-1.01-0.19
		c-0.26-0.1-0.47-0.32-0.71-0.49c0.27-0.16,0.54-0.42,0.83-0.45c1.09-0.11,2.18-0.13,3.27-0.2c0.11-0.01,0.21-0.06,0.35-0.1
		c-0.81-0.52-3.49-0.34-4.3-0.03c-1.23,0.47-0.55,8.19-0.55,8.34c-0.03,0.55-0.01,1.1-0.01,1.59c-0.1,1.12-0.2,2.54-0.35,3.4
		c-0.03,0.16-0.09,0.61-0.52,1.49c0.09,0.28-3.27,3.96-3.36,4.03c-0.69,0.5-3.68,1.76-4.71,3.53c-0.57,0.97-1.43,1.8-1.73,2.94
		c-0.15,0.59-0.31,1.13-0.57,1.69c-0.26,0.59-0.82,2-0.87,2.74C64.48,48.1,64.55,54.23,64.58,55.12z"/>
	<path class="st1" d="M52.42,97.44c0.85,0.4,3.33,0.59,3.58,0.54c0.4,0,3.36-0.63,3.76-1.28c0.12-0.19,0.53-0.19,0.81-0.27
		c0.07,0.08,0.82-2.79,1.04-3.03c0.84-2.33,0.49-1.99-1.33-1.56c-0.18,0.04-2.38,0.03-2.59,0.03c-0.24,0-1.03-0.06-1.22-0.06
		c-0.38-0.01-2.91-0.13-4.93-1.45c-0.2-0.05-2.35-1.4-3.3-2.93c-0.85-1.7-1.35-3.01-1.9-4.16c-0.1-0.22,0.03-0.55,0.08-1.09
		c-0.26,0.66-1.35,1.7-0.88,5.38C47.21,95.74,52.4,97.05,52.42,97.44z"/>
	<path class="st2" d="M96.68,71.95c0.28-1.33,0.55-2.48,0.76-3.65c0.13-0.77-0.2-1.36-0.77-1.91c-2.2-2.15-4.37-4.34-6.53-6.54
		c-0.62-0.63-1.03-0.68-1.64-0.04c-0.23,0.24-0.45,0.48-0.71,0.68c-1.15,0.92-1.23,1.49-0.22,2.52c1.57,1.59,3.21,3.11,4.8,4.68
		c1.15,1.14,2.25,2.33,3.38,3.48C95.99,71.42,96.29,71.62,96.68,71.95z"/>
	<path class="st2" d="M70.85,65.86c-0.39,1.32-1.01,2.67-0.59,4.06c0.21,0.7,1.03,1.22,1.59,1.8c1.07,1.1,2.16,2.19,3.24,3.28
		c0.88,0.89,1.75,1.78,2.65,2.63c0.14,0.13,0.52,0.24,0.59,0.16c0.67-0.67,1.31-1.37,1.91-2.11c0.07-0.08-0.16-0.52-0.34-0.71
		c-1.96-2.05-3.95-4.08-5.91-6.13c-0.96-1-1.88-2.04-2.81-3.06C71.07,65.81,70.96,65.83,70.85,65.86z"/>
	<path class="st2" d="M81.26,72.74c0.78-1.55,0.55-2.55-0.72-3.83c-1.82-1.83-3.59-3.71-5.39-5.55c-0.42-0.44-0.89-0.82-1.36-1.27
		c-0.17,0.1-0.39,0.2-0.57,0.33c-1.18,0.84-1.13,1.09-0.04,2.07c1.06,0.97,2.01,2.07,3.01,3.12c1.42,1.49,2.85,2.99,4.28,4.47
		C80.71,72.32,80.99,72.52,81.26,72.74z"/>
	<path class="st2" d="M95.07,74.33c-3.21-3.23-6.32-6.36-9.44-9.5c-0.51,0.94-0.43,2.1,0.24,2.77c2.46,2.52,4.93,5.01,7.39,7.52
		c0.39,0.39,0.71,0.4,1.07,0.03C94.59,74.88,94.84,74.59,95.07,74.33z"/>
</g>
</svg>
